<?xml version="1.0" encoding="utf-8"?>
<!-- Generator: Adobe Illustrator 25.2.1, SVG Export Plug-In . SVG Version: 6.00 Build 0)  -->
<svg version="1.1" id="Buildentory_Logo" xmlns="http://www.w3.org/2000/svg" xmlns:xlink="http://www.w3.org/1999/xlink" x="0px"
	 y="0px" viewBox="0 0 1920 1080" style="enable-background:new 0 0 1920 1080;" xml:space="preserve">
<style type="text/css">
	.st0{fill:#FFFFFF;}
	.st1{fill:#FCFF00;}
</style>
<path id="White_back" class="st0" d="M1621.35,673.96l17.51,27.46l4.43-4.28l4.05-1.49l18.79-0.15c0,0,15.04-1.03,19.69-1.74
	c4.65-0.71,13-1.9,21.11-3.7s13.59-4.06,21.45-6.87s10.52-4.52,19.69-8.72c9.17-4.2,19.91-11.16,19.91-11.16l19.28-14.73
	c16.31-14.06,10.42-9.09,14.38-12.88c6.67-6.39,17.98-19.96,17.98-19.96s6.84-9.02,11.06-15.86s8.62-16.75,8.62-16.75l9.55-21.42
	c0,0,2.29-5.57,4.18-10.39s3.87-17.28,3.87-17.28l2.02-9.78c0,0,1.47-9.12,1.74-13.32s0.6-6.11,0.6-20.08s-1.67-26.79-1.67-26.79
	c-0.92-9-2.51-16.38-3.9-21.74c-2.46-9.43-5.3-16.35-8.17-23.36c-3.2-7.8-6.26-14.18-8.59-18.77l-11.2-20l-11.76-15.32l-12.86-14.93
	l-15.83-14.22l-16.87-12.66l-18.72-11.31l-18.63-8.63l-17.55-5.94l-11.97-3.31l-26.18-3.9l-19.18-0.78h-59.77l-1134.63-0.01
	c0,0-25.81-0.63-28.3,0.57c-2.48,1.2-1.44,0.68-2.41,1.99c-0.98,1.31-1.41,2.93-1.78,4c-0.38,1.07-2.93,8.36-2.93,8.36
	S288.9,694.24,290.02,695.3c1.12,1.06,21.51,0.02,21.51,0.02s4.27-0.08,7.29-0.23c3.02-0.15,8.55-4.35,8.55-4.35l23.66-14.91
	l30.84-19.86c0,0,17.95-11.66,22.35-14.31c4.4-2.65,10.65-3.68,13.18-3.57c2.53,0.1,7.29,0.89,8.95,1.62s3.8,1.88,4.93,2.65
	c1.14,0.77,4.35,3.81,5.08,5.12s2.18,3.89,2.18,3.89s1.31,3.82,1.83,6.4c0.52,2.58,4.22,21.34,4.45,22.19s2.69-0.93,4.87-2.3
	c2.18-1.37,52.69-33.24,52.69-33.24l3.72-2.62l4.01-2.3l5.27-1.05l5.27-0.35l5.71,0.92l4.44,1.76l2.83,1.78l3.45,3.14l2.64,3.9
	l2.4,7.42l5.09,23.17l55.61-35.43l6.41-3.63l5.88-3.04l7.37-0.95l6.69,1.62l4.49,2.07l3.99,3.12l3.4,4.21l2.62,5.26l1.78,6.34
	l1.53,9.72l1.44,10.28l32.72-21.01l28-17.62l6.05-2.34l8.08-0.7l6.29,1.12l4.81,2.27l4.15,3.44l2.58,3.31l2.5,5.48l1.7,7.72
	l3.83,18.51l3.04-1.27l59.07-37.44l5.44-2.09l4.57-1.05l4.21-0.35l4.75,0.9l5.05,2.03l3.54,2.44l3.34,3.57l2.53,4.3l6.61,29.47
	c0,0,60.01-38.15,62.43-39.44s4.1-2.08,5.87-2.55c1.77-0.47,8.52-1.38,11.59-0.35c3.07,1.02,5.05,1.93,5.05,1.93l4.42,2.92l3.48,3.7
	c0,0,2.03,2.65,3.34,5.85c1.31,3.2,1.12,2.68,1.72,5.88c0.6,3.2,2,10.72,2,10.72l1.21,7.13l0.74,4.33l12.52-7.86
	c0,0,45.71-29.37,50.07-31.62c4.36-2.26,3.46-1.56,6.06-2.27s4.92-1.05,4.92-1.05s3.32-0.01,5.27,0.35c1.95,0.37,3.93,0.9,5.62,1.61
	c1.69,0.71,2.76,1.55,4.32,2.53c1.56,0.97,2.76,2.39,3.94,3.84c1.18,1.45,1.3,1.78,2.32,3.68c1.02,1.89,1,1.04,1.78,4.24
	c0.78,3.2,5.53,26.36,5.53,26.36l21.1-13.12c0,0,36.06-24.04,41.19-26.16c5.13-2.12,3.42-1.6,5.52-2.28
	c2.09-0.69,4.57-1.05,4.57-1.05h4.92l5.97,1.6l3.96,2.03c0,0,2.3,1.5,3.39,2.63c1.09,1.13,2.1,2.93,2.84,4.28
	c0.74,1.34,2.81,7.02,2.81,7.02l2.31,8.57l1.21,5.82l1.44,6.72l0.68,3.24l50.58-32.8l6.28-3.85c0,0,7.87-3.97,11.24-4.21
	c3.37-0.24,0.56-0.47,4.92-0.35c4.36,0.12,6.32,1.05,6.32,1.05s3.75,1.13,4.74,1.48s5.07,3.68,5.07,3.68l4.12,5.37l2.38,7.03
	l1.06,5.94l3.5,17.2l62.1-38.98l4.82-2.42c0,0,11.11-2.82,17.37,0.79c6.27,3.61,6.69,4.59,6.69,4.59s3.32,4.04,4.18,5.94
	c0.86,1.9,3.7,12.2,3.7,12.2s1.9,14.79,3.22,17.41c1.32,2.61,59.36-37.06,62.09-38.45c2.73-1.39,3.06-1.28,5.29-2.13
	c2.23-0.85,5.27-1.4,5.27-1.4s1.69-0.01,4.21,0.35c2.52,0.37,5.27,1.05,5.27,1.05l6.76,3.2l4.57,4.89l3.31,6.36l2.41,10.2
	l2.37,16.22l3.45-1.05l14.34-8.92l35.08-23.1l9.17-5.35l6.24-2.59l4.78-0.86l5.14,0.28l5.62,1.4l5.62,2.81l3.45,3.35
	c1.29,2.15,2.59,4.29,3.88,6.44c0.63,2.7,1.26,5.4,1.9,8.1l3.01,15.45l1.06,5.4c5.74-3.51,11.47-7.01,17.21-10.52
	c9.15-5.89,18.3-11.79,27.44-17.68L1621.35,673.96z"/>
<path id="y" d="M1240.52,719.15c-3.41-19.57-6.67-38.33-10.06-57.8c-2.16,1.02-4.23,1.75-6.03,2.89
	c-21.67,13.69-43.3,27.44-64.95,41.18c-5.36,3.4-10.88,6.58-16,10.31c-3.49,2.54-4.05-0.16-4.38-2.16
	c-1.56-9.29-2.66-18.66-4.24-27.94c-1.35-7.96-3.11-15.85-4.9-24.84c-30.33,19.32-60.35,38.44-91.34,58.18
	c-4.36-19.17-6.53-38.25-10.49-58.33c-30.5,19.42-60.57,38.57-91.79,58.45c-3.43-19.41-6.77-38.31-10.32-58.42
	c-30.37,19.34-60.46,38.5-91.76,58.43c-3.46-19.54-6.79-38.4-10.33-58.43c-30.51,19.43-60.53,38.55-91.53,58.3
	c-4.37-19.13-6.53-38.23-10.5-58.32c-29.77,18.95-59.12,37.64-89.06,56.7c-0.8-1.49-1.91-2.74-2.17-4.15
	c-1.49-8.11-2.79-16.26-4.14-24.4c-1.5-9.02-2.98-18.03-4.66-28.2c-30.59,19.47-60.7,38.64-91.93,58.53
	c-3.41-19.57-6.7-38.46-10.19-58.52c-30.62,19.5-60.62,38.6-91.9,58.52c-3.41-19.53-6.71-38.38-10.15-58.1
	c-3.7,2.15-7.06,3.94-10.25,5.98c-19.37,12.37-38.69,24.82-58.04,37.2c-7.08,4.53-14.19,9.01-21.36,13.37
	c-1.3,0.79-3.01,1.27-4.53,1.27c-24.16,0.04-48.33,0.51-72.47-0.22c-19.18-0.57-38.14-3.9-56.45-9.82
	c-27.51-8.9-52.65-22.32-75.18-40.58c-18.04-14.62-33.3-31.69-46.21-50.91c-11.88-17.7-21.25-36.75-27.21-57.15
	c-4-13.69-6.46-27.91-8.5-42.06c-1.56-10.84-2.41-21.99-1.74-32.88c0.87-14.04,3.48-27.98,5.51-41.93
	c1.99-13.67,6.86-26.5,12.12-39.14c7-16.8,16.19-32.37,26.99-47.07c15.03-20.46,32.97-37.96,54-51.92
	c12.63-8.38,26.18-15.7,40.08-21.72c12.44-5.39,25.82-8.78,39.01-12.23c8.02-2.1,16.42-3.22,24.71-3.76
	c15.6-1.01,31.26-1.78,46.89-1.78c457.37-0.09,914.75-0.09,1372.12,0.02c11.7,0,23.53,0.55,35.07,2.31
	c14.25,2.17,28.19,5.94,41.9,10.84c14.3,5.11,27.85,11.47,40.79,19.22c22.59,13.53,42.25,30.48,58.84,50.99
	c13.94,17.22,25.31,35.91,33.65,56.48c4.99,12.3,8.82,24.86,11.87,37.81c5.23,22.2,6.54,44.63,4.77,67.14
	c-1.41,18-5.03,35.67-10.8,52.99c-5.24,15.72-11.8,30.79-20.24,44.82c-13.14,21.86-29.4,41.35-49.21,57.65
	c-16.47,13.55-34.25,24.9-53.84,33.5c-13.8,6.06-27.91,11.05-42.7,13.92c-8.03,1.56-16.14,2.91-24.28,3.67
	c-10.61,1-21.29,1.36-31.94,1.93c-7.87,0.42-13.66-4.53-13.76-11.63c-0.1-7,5.8-12.15,13.51-12.02c6.79,0.11,13.62,0.47,20.37-0.08
	c19.54-1.6,38.94-4.4,57.18-12.05c11.16-4.68,22.35-9.54,32.79-15.6c9.26-5.38,17.79-12.18,26.1-19.01
	c7.58-6.23,14.86-12.96,21.51-20.17c11.49-12.46,21.71-25.96,28.8-41.51c5.36-11.77,10.87-23.5,15.45-35.58
	c2.45-6.45,2.91-13.64,4.52-20.44c4.16-17.64,4.25-35.57,3.18-53.44c-1.07-17.89-3.59-35.68-10.92-52.33
	c-5.37-12.2-10.18-24.74-16.65-36.34c-5.27-9.43-12.34-17.92-19.18-26.38c-5.53-6.84-11.43-13.55-18.02-19.34
	c-8.84-7.76-18.13-15.14-27.93-21.61c-9.26-6.12-19.12-11.55-29.28-16c-10.01-4.38-20.58-7.63-31.14-10.54
	c-21.63-5.96-43.86-5.8-66.09-5.79c-399.39,0.06-798.78,0.04-1198.17,0.04c-3.91,0-6.26,0-7.87,0.57c-2.38,0.85-3.14,2.97-4.98,8.23
	c-6.71,19.21-13.27,38.48-20.06,57.66c-4.24,11.98-8.88,23.81-13.15,35.78c-3.59,10.07-6.8,20.28-10.34,30.37
	c-3.53,10.05-7.34,20-10.9,30.03c-4.27,12-8.34,24.08-12.63,36.07c-4.3,12-8.83,23.93-13.14,35.93c-3.5,9.75-6.77,19.58-10.25,29.34
	c-4.43,12.4-9.04,24.73-13.42,37.15c-3.51,9.95-6.68,20.03-10.21,29.97c-4.34,12.23-9,24.35-13.35,36.57
	c-3.54,9.95-6.83,19.99-10.22,29.99c-0.88,2.6-1.71,5.22-2.77,8.48c10.15,0,19.51,0.35,28.8-0.21c2.93-0.18,5.84-2.63,8.55-4.35
	c18.2-11.54,36.35-23.16,54.5-34.77c7.45-4.77,14.74-9.83,22.35-14.31c13.66-8.05,33.29-2.54,36.15,16.1
	c1.11,7.22,2.85,14.34,4.45,22.19c1.49-0.69,3.3-1.31,4.87-2.3c18.81-11.94,37.49-24.09,56.41-35.86
	c13.51-8.4,33.54-2.44,36.02,15.24c1.06,7.54,3.24,14.93,5.09,23.17c3.71-2.24,7.57-4.45,11.31-6.85
	c16.87-10.81,33.21-22.55,50.71-32.22c13.11-7.25,28.61-3.14,34.44,12.29c2.54,6.73,2.86,14.31,4.15,21.51
	c0.26,1.44,0.37,2.9,0.6,4.83c11.19-7.19,21.95-14.12,32.72-21.01c9.29-5.95,18.22-12.62,28-17.62
	c14.23-7.28,31.83-1.97,35.26,15.75c1.45,7.5,3.06,14.97,4.73,23.06c0.88-0.36,2.06-0.65,3.04-1.27
	c19.66-12.53,38.93-25.73,59.07-37.44c13.51-7.85,32.24-2.06,35.26,15.9c1.27,7.52,3.05,14.96,4.78,23.3
	c4.43-2.79,8.62-5.41,12.78-8.07c16.5-10.55,32.52-21.97,49.64-31.37c12.29-6.75,27.58-3.33,33.76,11.49
	c1.58,3.78,2.08,8.04,2.89,12.11c0.98,4.95,1.74,9.94,2.78,15.95c4.47-2.8,8.51-5.31,12.52-7.86c16.64-10.62,32.8-22.13,50.07-31.62
	c14.01-7.71,31.72-1.69,34.99,16.13c1.37,7.49,3.05,14.92,4.75,23.16c4.16-2.55,8.3-4.98,12.34-7.57
	c16.62-10.63,32.74-22.15,49.95-31.71c13.89-7.72,31.94-1.58,34.97,15.92c1.3,7.5,3.03,14.92,4.63,22.66
	c16.93-11.04,33.57-22.22,50.58-32.8c6.06-3.77,12.03-8.02,19.78-8.68c11.94-1.01,23.26,6.51,25.28,18.88
	c1.23,7.51,2.93,14.94,4.56,23.14c1.96-1.1,4.09-2.16,6.08-3.44c18.63-11.92,36.79-24.67,56.02-35.54
	c13.25-7.49,29.52-2.93,34.52,12.47c2.67,8.22,3.62,16.99,5.45,26.05c0.78-0.18,1.96-0.15,2.79-0.69
	c19.74-12.64,39.03-26.05,59.3-37.76c13.06-7.55,29.13-3.19,34.69,12.32c2.53,7.07,2.88,14.92,4.2,22.42c0.2,1.16,0.34,2.33,0.59,4
	c1.35-0.39,2.56-0.47,3.45-1.05c16.48-10.67,32.79-21.59,49.42-32.02c6.2-3.88,12.3-8.23,20.19-8.79
	c11.63-0.83,22.71,6.14,24.94,18.75c1.4,7.92,3.04,15.8,4.73,24.49c4.23-2.53,8.54-4.94,12.68-7.61
	c31.66-20.41,63.31-40.84,94.92-61.32c7.89-5.11,15.63-10.44,23.47-15.62c9.96-6.59,14.86-15.92,15.04-27.77
	c0.1-6.57,0.02-13.13,0.02-19.97c-5.63,2.04-10.06,3.62-15.22,5.57c-11.24,3.96-21.44,4.08-32.43-0.04
	c-8.73-3.27-16.68-7.22-23.3-13.95c-5.94-6.04-9.74-13.23-11.28-21.25c-1.52-7.91-2.1-16.09-2.21-24.16
	c-0.29-21.74-0.1-43.49-0.1-65.23c0-1.63,0-3.27,0-5.24c7.84,0,15.3,0,23.56,0c0,1.67,0,3.4,0,5.12c0,23.86,0.04,47.72-0.02,71.57
	c-0.02,8.54,2.14,16.46,7.96,22.67c3.1,3.31,7.28,6.54,11.54,7.68c13.06,3.51,27.99,1.47,36.46-11.68
	c3.63-5.64,5.09-12.03,5.07-18.78c-0.05-23.71-0.01-47.41-0.01-71.12c0-1.77,0-3.55,0-5.57c8.01,0,15.48,0,23.55,0
	c0,1.78,0,3.4,0,5.01c0,46.51,0.02,93.01-0.01,139.52c-0.01,14.5-3.31,27.93-14.06,38.4c-4.1,3.99-8.73,7.55-13.51,10.72
	c-28.16,18.65-56.35,37.25-84.7,55.6c-11.52,7.46-23.54,14.14-35.2,21.4c-11.86,7.38-23.57,15-35.3,22.59
	c-1.18,0.76-1.18,0.76-2.98,1.87c-0.07,0.04-0.17,0.13-0.24,0.1c-0.07-0.02-0.1-0.15-0.14-0.24c-0.31-0.62-0.75-2.22-0.96-3.13
	c-1.2-4.95-1.97-9.97-2.82-15c0.07,0.41-1.7-10.77-2.66-16.46c-1.31-7.75-2.87-15.45-4.57-24.41
	c-30.48,19.42-60.48,38.54-91.69,58.42c-3.44-19.4-6.79-38.28-10.35-58.41c-30.42,19.36-60.49,38.5-91.78,58.42
	c-3.39-19.44-6.68-38.3-10.21-58.5C1301.9,680.06,1271.96,699.13,1240.52,719.15z M408.3,289.75c-0.86-0.13-1.43-0.29-2-0.28
	c-54.43,0.95-108.91-2.14-163.31,1.66c-9.35,0.65-18.75,1.86-27.88,3.92c-9.42,2.12-18.88,4.83-27.71,8.68
	c-10.99,4.79-21.54,10.71-31.96,16.69c-20.15,11.56-36.75,27.3-51.34,45.2c-11.07,13.58-20.19,28.44-27,44.58
	c-4.26,10.11-8.59,20.32-11.36,30.89c-2.61,9.94-2.95,20.46-4.79,30.64c-3.88,21.53-0.37,42.74,2.95,63.83
	c2.45,15.61,8.71,30.3,15.57,44.48c8.8,18.16,20.04,34.84,33.87,49.65c11.33,12.13,23.61,23.27,37.78,31.9
	c11.03,6.71,22.51,12.86,34.31,18.09c13.19,5.84,26.82,10.81,41.44,12.12c11.63,1.04,23.25,2.25,34.89,3.15
	c1.07,0.08,2.88-1.35,3.33-2.48c2.38-6.07,4.4-12.28,6.61-18.42c2.97-8.24,6.09-16.43,9.01-24.69c4.28-12.06,8.38-24.18,12.67-36.24
	c3.54-9.95,7.34-19.8,10.85-29.76c3.61-10.23,6.92-20.57,10.52-30.81c4.33-12.34,8.88-24.6,13.24-36.93
	c4.77-13.46,9.36-26.98,14.15-40.43c5.1-14.31,10.38-28.55,15.49-42.84c3.41-9.52,6.63-19.11,10.01-28.65
	c4.52-12.75,9.09-25.47,13.66-38.2c2.91-8.11,5.87-16.2,8.76-24.32c2.89-8.15,5.68-16.33,8.57-24.47
	C401.76,307.88,404.95,299.08,408.3,289.75z"/>
<path id="r" d="M1572.67,553.84c-8.02,0-15.39,0-23.16,0c0-42.93,0-85.85,0-129.36c6.56,0,13.16-0.13,19.73,0.16
	c0.83,0.04,2.04,2.17,2.24,3.46c0.47,3.13,0.45,6.33,0.59,8.92c6.4-4.3,11.89-9.42,18.38-11.93c6.46-2.5,13.94-2.37,21.73-3.51
	c0,7.87,0.22,14.47-0.21,21.02c-0.07,1.12-2.88,2.9-4.46,2.94c-6.54,0.18-12.82,0.9-18.32,4.82c-8.47,6.03-12.96,14.41-14.61,24.52
	c-3.96,24.28-0.97,48.73-1.9,73.08C1572.61,549.75,1572.67,551.54,1572.67,553.84z"/>
<path id="o" d="M1529.48,489.51c-0.1,38.3-29.39,66.46-66.7,66.49c-37.4,0.03-66.83-28.27-66.8-66.85
	c0.04-38.15,29.58-66.78,67.16-66.57C1500.1,422.78,1529.64,451.07,1529.48,489.51z M1420.35,488.81c1.02,5.67,1.52,11.5,3.18,16.99
	c3.62,11.99,11.65,20.24,23.37,24.61c12.22,4.56,24.31,3.97,36.05-1.93c11.49-5.77,18.41-15.53,20.61-27.65
	c1.66-9.12,1.92-18.73-1.39-28.02c-3.19-8.97-8.67-15.81-16.42-21.16c-8.84-6.11-18.73-6.21-28.87-5.81
	c-8.34,0.33-15.31,3.84-21.37,9.03C1425.22,463.67,1420.39,475.05,1420.35,488.81z"/>
<path id="t" d="M1337.1,424.45c14.14,0,27.57,0.17,40.99-0.1c4.4-0.09,5.97,1.32,5.65,5.65c-0.29,3.9-0.24,7.86-0.02,11.77
	c0.27,4.62-2.34,5.66-6.18,5.65c-11.47-0.03-22.95-0.01-34.42-0.01c-1.78,0-3.56,0-5.47,0c-0.23,1.3-0.52,2.16-0.52,3.02
	c-0.01,22.35-0.18,44.69,0.14,67.04c0.11,8.09,3.69,11.67,9.68,12.86c4.41,0.88,8.99,1.01,13.5,1.15
	c6.03,0.19,12.08,0.15,18.12,0.03c3.63-0.07,5.27,1.37,5.14,5.09c-0.15,4.52-0.09,9.06-0.03,13.59c0.03,2.53-0.73,3.9-3.62,3.87
	c-11.32-0.14-22.72,0.65-33.95-0.36c-13.37-1.21-24.05-7.75-28.62-21.1c-2.18-6.36-3.72-13.28-3.78-19.96
	c-0.35-38.35-0.1-76.7-0.27-115.05c-0.02-4.26,1.26-5.56,5.36-5.29c4.66,0.3,9.36,0.23,14.03,0.02c3.42-0.16,4.4,1.2,4.33,4.5
	C1336.98,405.83,1337.1,414.86,1337.1,424.45z"/>
<path id="n" d="M1285.74,553.85c-7.85,0-15.21,0-23.23,0c0-1.91,0-3.66,0-5.41c0-22.79,0.01-45.58-0.01-68.37
	c-0.02-15.71-7.12-26.91-21.45-33.46c-7.19-3.29-23.15-0.05-29.62,5.95c-7.85,7.29-11.8,16.17-11.75,26.96
	c0.1,22.94,0.03,45.88,0.02,68.82c0,1.65,0,3.3,0,5.32c-7.81,0-15.4,0-23.25,0c-0.1-1.21-0.29-2.37-0.29-3.53
	c-0.01-24.6-0.22-49.2,0.09-73.8c0.2-15.87,5.95-29.65,17.95-40.37c6.6-5.9,14.21-10.16,23.08-11.58
	c5.43-0.87,10.99-2.04,16.41-1.71c21.27,1.31,38.03,10.27,46.63,30.68c2.84,6.75,5.25,14.23,5.44,21.44
	c0.67,25.34,0.3,50.7,0.3,76.06C1286.04,551.73,1285.87,552.61,1285.74,553.85z"/>
<path id="e" d="M1152.5,462.77c-32.51,18.29-64.39,36.22-96.45,54.25c14.13,17.43,32.62,18.43,47.5,14.69
	c19.34-4.86,25.53-20.93,29.72-38.32c7.01,0.86,13.8,1.61,20.57,2.55c2.74,0.38,3.06,2.49,2.72,4.81
	c-1.45,10.02-4.88,19.32-10.73,27.56c-7.36,10.37-16.95,18.14-28.95,22.57c-13.13,4.84-26.43,6.8-40.51,3.69
	c-12.31-2.71-23.13-7.71-32.35-16.14c-10.35-9.47-16.56-21.22-19.55-34.97c-2.34-10.75-2.22-21.45,0.66-31.75
	c4.71-16.87,14.14-30.49,29.86-39.53c13.04-7.5,26.82-10.92,41.6-9.52c18.63,1.77,34.28,9.7,45.81,24.75
	C1146.03,452.16,1149,457.41,1152.5,462.77z M1048.62,496.33c23.52-13.1,46.67-25.98,69.93-38.93
	c-10.41-13.55-34.45-15.04-49.22-7.21C1053.78,458.44,1045.13,476.86,1048.62,496.33z"/>
<path id="d" d="M979.61,436.22c0-23.94,0-46.97,0-70.34c7.98,0,15.43,0,23.42,0c0.08,1.47,0.24,3.06,0.24,4.66
	c0.01,38.33-0.03,76.65,0.02,114.97c0.02,14.16-2.69,27.82-9.94,39.91c-7.65,12.76-18.34,22.28-33.16,26.93
	c-9.37,2.93-18.72,4.55-28.31,3.5c-23.78-2.61-41.97-13.63-52.52-35.91c-5.9-12.47-9.09-25.55-7.5-39.15
	c2.39-20.55,11.59-37.27,29.71-48.65c12.45-7.82,25.8-10.85,40.16-9.49c9.86,0.93,19.24,3.93,28.06,8.56
	C972.69,432.73,975.64,434.2,979.61,436.22z M979.73,477.41c0-4.57-0.31-8.07,0.08-11.5c-0.28-4.73-1.96-6.22-5.58-8.2
	c-2.12-1.16-4.44-1.92-6.99-3.36c-14.17-8.18-29.01-11.71-45.07-6.49c-9.38,3.05-16.62,8.82-21.09,17.73
	c-5.64,11.22-7.71,22.8-4.31,35.29c2.29,8.39,5.97,15.7,12.36,21.58c10.34,9.51,22.75,12.2,36.2,10.15
	c13.43-2.04,22.75-9.97,28.44-22.1C978.86,499.7,980.13,488.13,979.73,477.41z"/>
<path id="l" d="M846.08,553.78c-7.79,0-15.27,0-23.02,0c0-62.64,0-125.05,0-187.84c7.6,0,15.17,0,23.02,0
	C846.08,428.47,846.08,490.89,846.08,553.78z"/>
<path id="i" d="M779.31,424.68c0,43.13,0,86.04,0,129.13c-7.75,0-15.25,0-22.97,0c0-43.11,0-86.02,0-129.13
	C764.1,424.68,771.56,424.68,779.31,424.68z"/>
<path id="i_dot" d="M767.61,409.29c-8.73-0.06-13.88-5.22-13.84-13.86c0.04-8.22,5.91-14.12,14.04-14.13
	c8.3,0,14.12,6.02,14.06,14.56C781.82,404.36,776.5,409.36,767.61,409.29z"/>
<path id="u" d="M607.07,424.7c7.78,0,15.25,0,23.34,0c0,1.94,0,3.7,0,5.45c0.01,23.69-0.17,47.39,0.12,71.08
	c0.13,10.62,4.62,19.37,13.25,25.96c14.51,11.09,35.26,6.58,44.61-9.39c3.38-5.78,4.89-12,4.87-18.72
	c-0.08-23.09-0.02-46.18-0.02-69.27c0-1.62,0-3.24,0-5.1c8,0,15.47,0,23.3,0c0.09,1.59,0.25,3.04,0.25,4.5
	c0.01,23.39-0.02,46.78,0.02,70.17c0.03,14.51-3.93,27.61-13.49,38.73c-7.17,8.34-16.13,13.95-26.98,15.88
	c-6.46,1.15-13.18,2.37-19.63,1.81c-20.27-1.75-38.64-12.85-46.18-34.84c-2.45-7.16-3.73-14.37-3.7-21.93
	c0.1-23.24,0.03-46.48,0.05-69.72C606.86,427.86,606.99,426.4,607.07,424.7z"/>
<path id="B" d="M461.59,553.6c0-1.71,0-3.19,0-4.68c0-42.56-0.02-85.12,0.01-127.68c0.01-17.55,6.32-32.49,19.48-44.16
	c7.83-6.94,16.7-12.38,27.41-13.59c7.12-0.8,14.38-2,21.43-1.39c15.85,1.38,30.73,6.12,41.47,18.73
	c10.92,12.83,13.87,27.92,10.83,44.43c-1.99,10.81-6.94,19.51-16.16,25.67c-0.52,0.35-0.67,1.26-1.11,2.17
	c7.51,4.91,14.55,10.14,19.01,18.09c7.28,12.98,8.64,26.69,5.82,41.15c-1.87,9.58-5.74,18-12.52,25.02
	c-7.47,7.74-16.41,13.1-27.09,14.66c-28.76,4.19-57.72,1.44-86.59,1.95C463.15,553.98,462.71,553.82,461.59,553.6z M487.56,467.96
	c0,20.97,0,41.56,0,62.23c16.58,0,32.86,0.35,49.11-0.21c5.12-0.17,10.47-2.11,15.17-4.38c15.62-7.54,16.1-29.52,10.72-41.01
	c-5.21-11.11-15.15-15.7-26.22-16.38C520.26,467.23,504.09,467.96,487.56,467.96z M486.36,444.24c9.02,0,16.4,0.02,23.77-0.01
	c6.64-0.02,13.3,0.13,19.92-0.25c3.07-0.18,6.18-1.16,9.08-2.28c15.72-6.11,22.8-22.05,16.7-37.17c-3.52-8.71-10-14.49-18.75-17.18
	c-8.2-2.52-16.56-2.65-25.18-0.49c-11.46,2.86-20.86,11.81-22.48,21.21C487.41,419.67,487.33,431.61,486.36,444.24z"/>
<path id="Yellow_Handle" class="st1" d="M408.3,289.75c-3.35,9.33-6.54,18.13-9.67,26.96c-2.89,8.15-5.68,16.33-8.57,24.47
	c-2.88,8.12-5.85,16.21-8.76,24.32c-4.56,12.73-9.14,25.45-13.66,38.2c-3.38,9.54-6.6,19.12-10.01,28.65
	c-5.12,14.3-10.4,28.54-15.49,42.84c-4.79,13.45-9.39,26.97-14.15,40.43c-4.36,12.33-8.91,24.59-13.24,36.93
	c-3.6,10.24-6.91,20.58-10.52,30.81c-3.51,9.96-7.31,19.81-10.85,29.76c-4.29,12.06-8.4,24.18-12.67,36.24
	c-2.93,8.26-6.04,16.45-9.01,24.69c-2.22,6.14-4.23,12.35-6.61,18.42c-0.44,1.13-2.25,2.57-3.33,2.48
	c-11.64-0.89-23.26-2.11-34.89-3.15c-14.62-1.31-28.25-6.28-41.44-12.12c-11.8-5.23-23.28-11.38-34.31-18.09
	c-14.18-8.62-26.45-19.77-37.78-31.9c-13.84-14.81-25.07-31.49-33.87-49.65c-6.87-14.17-13.12-28.87-15.57-44.48
	c-3.32-21.09-6.83-42.3-2.95-63.83c1.83-10.18,2.17-20.7,4.79-30.64c2.78-10.57,7.1-20.78,11.36-30.89c6.81-16.14,15.93-31,27-44.58
	c14.6-17.9,31.2-33.64,51.34-45.2c10.42-5.98,20.97-11.9,31.96-16.69c8.83-3.85,18.29-6.56,27.71-8.68
	c9.13-2.06,18.53-3.26,27.88-3.92c54.4-3.8,108.88-0.72,163.31-1.66C406.87,289.46,407.44,289.62,408.3,289.75z M234.93,343.94
	c-9.58,1.17-19.1,3.68-28.34,6.57c-12.25,3.84-23.47,10.04-34.17,17.18c-22.23,14.85-39.33,34.25-50.6,58.4
	c-4.69,10.04-8.14,20.76-11.14,31.46c-2.37,8.47-3.74,17.31-4.59,26.09c-1.43,14.66,0.73,29.12,4.46,43.31
	c1.89,7.18,3.92,14.37,6.51,21.31c5.63,15.06,14.24,28.42,24.38,40.83c10.8,13.22,23.94,23.63,38.48,32.46
	c10.5,6.37,21.7,10.98,33.38,14.6c8.92,2.76,23.74-0.2,28.4-8.72c3.19-5.83,5.7-12.08,8.03-18.32
	c6.59-17.65,12.94-35.39,19.38-53.09c7.87-21.61,15.75-43.23,23.61-64.84c7.87-21.63,15.78-43.25,23.56-64.92
	c6.38-17.77,12.65-35.59,18.84-53.43c2.63-7.57,0.6-14.52-3.89-20.77c-5.55-7.73-13.71-10.15-22.74-10.25
	c-10.26-0.12-20.53-0.03-30.79-0.03"/>
<path id="Inner_Handle" d="M277.71,341.77c10.26,0,20.53-0.09,30.79,0.03c9.02,0.1,17.18,2.53,22.74,10.25
	c4.49,6.25,6.52,13.2,3.89,20.77c-6.19,17.84-12.46,35.65-18.84,53.43c-7.78,21.67-15.69,43.28-23.56,64.92
	c-7.86,21.62-15.74,43.23-23.61,64.84c-6.44,17.7-12.79,35.45-19.38,53.09c-2.33,6.24-4.84,12.49-8.03,18.32
	c-4.66,8.52-19.48,11.48-28.4,8.72c-11.69-3.62-22.88-8.22-33.38-14.6c-14.54-8.83-27.68-19.23-38.48-32.46
	c-10.14-12.41-18.76-25.77-24.38-40.83c-2.6-6.95-4.62-14.13-6.51-21.31c-3.73-14.19-5.89-28.65-4.46-43.31
	c0.86-8.77,2.22-17.62,4.59-26.09c3-10.7,6.45-21.42,11.14-31.46c11.28-24.15,28.37-43.55,50.6-58.4
	c10.7-7.15,21.92-13.35,34.17-17.18c9.24-2.89,18.76-5.4,28.34-6.57C249.09,342.21,263.46,342.73,277.71,341.77
	C277.72,342.07,277.69,341.47,277.71,341.77z M312.74,365.65c-2.69,0-4.32,0-5.95,0c-15.09,0-30.19,0.11-45.28-0.03
	c-20-0.18-39.16,3.49-57.44,11.71c-22.52,10.12-40.43,25.84-53.82,46.26c-10.24,15.62-16.03,33.13-19.08,51.8
	c-2.81,17.16-0.73,33.69,3.34,50.04c3.51,14.07,10.01,26.96,18.41,38.99c16.25,23.3,38.02,38.91,64.63,48.07
	c1.64,0.56,5.26-0.21,5.71-1.29c3.78-9.13,7.11-18.45,10.43-27.76c3.58-10.04,6.87-20.18,10.53-30.19
	c4.2-11.49,8.74-22.86,12.97-34.34c4.39-11.92,8.58-23.9,12.87-35.86c3.64-10.15,7.24-20.32,10.96-30.45
	c3.71-10.12,7.59-20.17,11.32-30.28c2.26-6.13,4.3-12.35,6.54-18.49c2.92-8.02,5.97-16,8.91-24.01
	C309.39,375.42,310.88,370.98,312.74,365.65z"/>
</svg>
