<?xml version="1.0" encoding="utf-8"?>
<!-- Generator: Adobe Illustrator 25.2.1, SVG Export Plug-In . SVG Version: 6.00 Build 0)  -->
<svg version="1.1" id="Layer_2" xmlns="http://www.w3.org/2000/svg" xmlns:xlink="http://www.w3.org/1999/xlink" x="0px" y="0px"
	 viewBox="0 0 640 480" style="enable-background:new 0 0 640 480;" xml:space="preserve">
<circle cx="320.2" cy="266.2" r="83.7"/>
<path d="M529.6,56.8h-82.9L398.7,4.5h-157l-47.9,52.3h-82.9c-28.8,0-52.3,23.6-52.3,52.3v314c0,28.8,23.6,52.3,52.3,52.3h418.7
	c28.8,0,52.3-23.6,52.3-52.3v-314C581.9,80.4,558.4,56.8,529.6,56.8z M138.3,152.2c-13.8,0-24.9-11.2-24.9-24.9
	c0-7.9,3.6-14.9,9.3-19.5c4.3-3.4,9.7-5.5,15.6-5.5c13.8,0,24.9,11.2,24.9,24.9C163.3,141,152.1,152.2,138.3,152.2z M320.2,397
	c-72.2,0-130.8-58.6-130.8-130.8S248,135.3,320.2,135.3s130.8,58.6,130.8,130.8S392.5,397,320.2,397z"/>
</svg>
