<?xml version="1.0" standalone="no"?>
<!DOCTYPE svg PUBLIC "-//W3C//DTD SVG 20010904//EN"
 "http://www.w3.org/TR/2001/REC-SVG-20010904/DTD/svg10.dtd">
<svg version="1.0" xmlns="http://www.w3.org/2000/svg"
 width="1920.000000pt" height="144.000000pt" viewBox="0 0 1920.000000 144.000000"
 preserveAspectRatio="xMidYMid meet">
<metadata>
Created by potrace 1.16, written by Peter Selinger 2001-2019
</metadata>
<g transform="translate(0.000000,144.000000) scale(0.100000,-0.100000)"
fill="#000000" stroke="none">
<path d="M8265 1375 l-70 -64 -87 -1 -87 0 -66 -130 c-58 -115 -64 -132 -51
-145 8 -8 21 -15 28 -15 7 0 102 83 210 185 l197 185 191 -180 c115 -108 200
-180 211 -180 12 0 17 4 13 11 -5 8 90 10 350 8 196 -3 355 -2 354 1 -2 3 -41
62 -87 133 l-83 127 -405 0 -405 0 -67 65 c-37 36 -69 65 -72 65 -2 -1 -35
-30 -74 -65z"/>
<path d="M4766 1295 c-104 -58 -196 -105 -204 -105 -8 0 -35 12 -61 26 l-46
26 -233 -116 c-127 -64 -232 -120 -232 -125 0 -24 88 10 266 101 l193 99 200
-101 c112 -56 213 -100 228 -100 20 0 -13 22 -119 77 -82 42 -148 79 -148 82
1 8 336 191 350 191 12 0 649 -336 664 -351 13 -12 76 -12 76 0 0 5 -24 21
-52 36 -29 15 -195 103 -369 196 -174 93 -318 169 -320 169 -2 -1 -89 -48
-193 -105z"/>
<path d="M1147 1233 c-9 -49 -29 -161 -44 -250 l-28 -163 -223 0 c-192 0 -226
2 -248 17 -24 15 -28 15 -57 0 -26 -14 -68 -17 -232 -19 l-199 -3 -42 -145
c-23 -80 -45 -152 -48 -160 -6 -13 55 -15 511 -12 l518 2 3 38 3 37 812 -2
812 -2 3 -38 3 -38 170 0 169 0 -5 25 c-3 14 -34 135 -68 270 l-62 245 -132 3
-132 3 -5 27 c-3 15 -12 68 -21 117 -9 50 -18 100 -21 113 l-4 22 -709 0 -708
0 -16 -87z m324 -195 c40 -57 79 -107 86 -111 10 -6 13 -40 13 -133 l0 -124
-172 2 -171 3 -1 122 c-1 68 2 123 6 123 4 0 42 50 85 110 42 61 78 110 80
110 1 0 35 -46 74 -102z m458 7 c36 -53 73 -103 83 -112 16 -14 18 -33 18
-140 l0 -123 -170 0 -170 0 0 120 0 119 48 64 c26 35 63 87 82 115 19 29 37
52 40 52 3 0 34 -43 69 -95z m465 -8 c35 -51 71 -99 80 -106 13 -11 16 -36 16
-137 l0 -124 -170 0 -170 0 0 124 c0 71 4 127 10 131 5 3 42 53 81 110 40 57
76 102 80 99 4 -2 37 -46 73 -97z m-1639 -347 l140 -95 -157 -3 c-86 -1 -229
-1 -317 0 l-159 3 156 107 c139 95 158 105 177 95 11 -7 84 -55 160 -107z"/>
<path d="M16985 1187 l-70 -52 -185 -5 -184 -5 -63 -145 c-35 -80 -63 -148
-63 -152 0 -5 24 -8 53 -8 54 0 54 0 321 191 147 105 273 188 280 186 7 -3 93
-63 191 -133 l178 -127 -72 -66 c-39 -36 -71 -69 -71 -73 0 -19 48 15 138 99
l99 92 109 -100 c100 -91 134 -114 134 -90 0 5 -6 11 -12 14 -38 13 23 17 235
15 l236 -3 -207 -148 c-191 -137 -210 -148 -244 -145 -21 2 -38 0 -38 -5 0 -8
-844 -2 -1191 9 l-176 5 -27 -45 c-14 -24 -26 -47 -26 -51 0 -3 321 -4 713 -1
l714 4 261 187 c144 103 268 185 275 182 6 -3 129 -89 272 -191 231 -165 296
-205 295 -178 -1 6 -133 102 -178 127 -23 13 -334 235 -347 248 -6 6 70 8 213
4 122 -2 222 -2 221 2 0 3 -31 71 -68 151 l-67 145 -703 3 -704 2 -78 55 c-43
30 -82 55 -86 55 -4 -1 -39 -24 -78 -53z"/>
<path d="M11486 1160 l-46 -49 -97 -3 -98 -3 -32 -75 c-18 -41 -43 -97 -55
-125 -13 -27 -25 -54 -27 -59 -2 -5 24 -7 59 -4 58 4 64 7 102 49 23 24 90 94
150 156 l108 112 88 -90 c48 -50 88 -94 90 -98 1 -4 -23 -35 -54 -69 -45 -50
-52 -62 -36 -62 13 0 57 40 119 106 l99 105 102 -106 102 -105 0 -140 0 -140
-430 0 c-402 0 -430 1 -431 18 -1 9 -1 50 0 90 l2 72 -192 0 c-177 0 -194 2
-225 21 l-34 21 -29 -21 c-27 -19 -43 -21 -210 -21 -100 0 -181 -2 -181 -3 0
-2 -18 -66 -40 -141 -22 -75 -40 -140 -40 -145 0 -5 208 -10 462 -10 254 -1
465 -4 470 -7 4 -3 8 2 8 10 0 9 9 16 20 16 11 0 20 -6 20 -12 0 -10 28 -13
105 -13 77 0 105 3 105 13 0 6 7 12 15 12 7 0 18 -6 22 -12 6 -9 40 -13 116
-13 79 0 107 3 107 13 0 6 9 12 20 12 11 0 20 -6 20 -12 0 -10 30 -12 125 -10
l125 3 3 -183 2 -183 3 193 c2 185 3 192 22 192 11 0 20 -6 20 -12 0 -10 54
-13 237 -13 131 0 240 3 243 6 3 4 14 3 25 -2 17 -6 17 -8 3 -8 -16 -1 -18
-14 -18 -135 0 -132 0 -135 23 -138 12 -2 35 0 50 5 15 5 42 7 60 4 18 -3 26
-3 19 0 -6 2 -10 9 -7 13 3 5 -18 68 -47 140 -47 120 -57 137 -106 184 l-54
51 -192 5 -191 5 -3 132 -3 131 215 4 c118 1 218 6 222 10 4 4 2 13 -3 20 -11
13 -44 73 -103 186 l-33 62 -365 0 -365 -1 -52 51 c-28 27 -53 50 -56 50 -4 0
-27 -22 -53 -50z m-571 -530 l140 -95 -147 -3 c-81 -1 -216 -1 -300 0 l-152 3
149 102 c82 56 154 98 160 95 6 -4 74 -50 150 -102z"/>
<path d="M14583 1098 l-163 -89 -48 27 -48 27 -201 -99 c-111 -55 -202 -104
-202 -110 -2 -26 94 8 241 85 l156 82 172 -86 c116 -58 181 -85 199 -83 21 3
2 16 -98 66 -68 35 -120 67 -115 72 5 4 68 40 139 80 l130 72 40 -20 c22 -11
148 -78 281 -149 132 -72 257 -133 277 -137 82 -15 72 -10 -508 303 l-90 48
-162 -89z"/>
<path d="M7083 838 l-32 -33 454 3 c307 2 455 -1 455 -8 0 -7 -151 -10 -459
-10 l-459 0 -102 -115 c-57 -64 -99 -119 -95 -123 3 -4 283 -7 621 -7 338 0
614 -3 614 -7 0 -5 -21 -8 -46 -8 -36 0 -45 -3 -42 -15 3 -14 50 -16 412 -15
226 0 411 2 413 4 2 1 -9 37 -24 79 l-28 77 -357 0 -357 0 -11 58 c-12 57 -13
58 -41 54 -29 -4 -29 -4 -29 46 l0 51 -428 1 -428 0 -31 -32z m877 2 c0 -7
-152 -10 -436 -10 -287 0 -433 3 -429 10 4 6 160 10 436 10 279 0 429 -3 429
-10z m56 -82 c4 -5 -219 -8 -496 -8 -401 0 -500 3 -492 13 8 9 115 11 495 7
267 -3 489 -8 493 -12z m9 -28 c4 -6 -177 -11 -513 -12 -412 -2 -518 0 -515
10 6 15 1018 18 1028 2z m10 -40 c4 -7 -177 -10 -535 -10 -358 0 -539 3 -535
10 8 14 1062 14 1070 0z m20 -40 c4 -7 -185 -10 -560 -10 -375 0 -564 3 -560
10 4 6 202 10 560 10 358 0 556 -4 560 -10z m5 -35 c0 -13 -75 -15 -586 -15
-517 0 -585 2 -574 15 18 22 1160 22 1160 0z m10 -37 c0 -10 -128 -13 -609
-13 -486 0 -607 3 -599 13 15 18 1208 18 1208 0z"/>
<path d="M13750 721 c-7 -15 -89 -199 -127 -288 -4 -9 105 -11 470 -10 262 1
478 4 481 8 3 3 2 17 -2 32 l-7 28 -285 2 -285 2 -3 123 -3 122 -114 0 c-102
0 -115 -2 -125 -19z"/>
<path d="M4840 623 l0 -33 426 0 c281 0 423 3 419 10 -4 6 -158 11 -423 12
-281 1 -378 4 -297 8 66 4 253 8 415 10 191 1 282 5 259 11 -20 4 -208 10
-418 11 l-381 3 0 -32z"/>
<path d="M15310 565 l0 -65 -336 0 -335 0 3 -37 3 -38 528 -3 c349 -1 527 1
527 8 0 5 -4 10 -8 10 -4 0 -43 43 -85 95 l-78 95 -109 0 -110 0 0 -65z"/>
<path d="M4725 530 c-4 -7 162 -10 489 -10 324 0 496 3 496 10 0 7 -170 10
-489 10 -316 0 -492 -4 -496 -10z"/>
<path d="M5693 499 l27 -11 0 -219 c0 -212 1 -219 20 -219 11 0 20 4 20 8 0 5
7 17 16 28 8 10 12 13 8 5 -4 -9 -3 -12 4 -7 6 4 8 14 5 23 -5 12 -2 15 10 10
9 -3 19 -1 23 5 4 7 3 8 -4 4 -7 -4 -12 -5 -12 -2 0 3 11 11 24 18 l24 13 -66
170 c-36 94 -66 171 -66 172 -1 1 -15 4 -31 7 l-30 6 28 -11z"/>
<path d="M8240 280 l0 -191 98 3 97 3 0 185 0 185 -97 3 -98 3 0 -191z"/>
<path d="M4890 270 l0 -180 90 0 90 0 0 180 0 180 -90 0 -90 0 0 -180z"/>
<path d="M1760 245 l0 -175 95 0 95 0 0 175 0 175 -95 0 -95 0 0 -175z"/>
<path d="M11792 378 c-8 -8 -12 -55 -12 -155 l0 -143 85 0 86 0 -3 153 -3 152
-70 3 c-46 2 -74 -1 -83 -10z"/>
<path d="M17460 215 l0 -155 80 0 80 0 0 155 0 155 -80 0 -80 0 0 -155z"/>
<path d="M13790 195 l0 -146 73 3 72 3 3 143 3 142 -76 0 -75 0 0 -145z"/>
<path d="M1050 38 c0 -5 369 -8 820 -8 451 0 820 3 820 8 0 4 -369 7 -820 7
-451 0 -820 -3 -820 -7z"/>
<path d="M11200 40 c0 -7 147 -10 420 -10 273 0 420 3 420 10 0 7 -147 10
-420 10 -273 0 -420 -3 -420 -10z"/>
</g>
</svg>
