<?xml version="1.0" encoding="utf-8"?>
<!-- Generator: Adobe Illustrator 25.2.1, SVG Export Plug-In . SVG Version: 6.00 Build 0)  -->
<svg version="1.1" id="Layer_1" xmlns="http://www.w3.org/2000/svg" xmlns:xlink="http://www.w3.org/1999/xlink" x="0px" y="0px"
	 viewBox="0 0 40 40" style="enable-background:new 0 0 40 40;" xml:space="preserve">
<path d="M18.5,1.7c0.9-0.1,1.7,0,2.5,0c0.1,0,0.2,0,0.2,0c0.7,0.1,1.3,0.2,2,0.3c5.2,1.1,9.2,3.9,12.1,8.3c1.4,2.2,2.2,4.5,2.6,7.1
	c0.1,0.4,0.2,0.9,0.2,1.3c0,0.8,0,1.6,0,2.5c0,0.1,0,0.2,0,0.3c-0.1,0.9-0.2,1.8-0.4,2.6c-1.1,4.6-3.6,8.3-7.5,11
	c-2.3,1.6-4.9,2.6-7.7,3c-0.5,0.1-0.9,0.2-1.4,0.2c-0.8,0-1.6,0.1-2.5,0c-0.1,0-0.2,0-0.3,0c-0.7-0.1-1.3-0.2-2-0.3
	C11,36.9,7,34.1,4.2,29.6c-1.4-2.2-2.2-4.5-2.6-7.1c-0.1-0.4-0.1-0.9-0.2-1.3c-0.1-0.9-0.1-1.7,0-2.5c0-0.1,0-0.2,0-0.3
	c0.1-0.7,0.2-1.3,0.3-2c1-4.9,3.5-8.8,7.6-11.6c2.3-1.6,4.9-2.6,7.8-3C17.6,1.8,18,1.7,18.5,1.7z M32.9,29.5
	c4.6-6.2,4.4-16-2.7-21.9c-6.8-5.8-17-5-22.9,2c-5.6,6.6-4.4,15.3-0.7,19.9c0.2-0.4,0.4-0.8,0.7-1.2c2.7-4.5,6.5-7.2,11.8-7.6
	c2.2-0.2,4.3,0.3,6.2,1.2c3.3,1.5,5.7,4,7.4,7.2C32.7,29.1,32.8,29.3,32.9,29.5z M19.7,36.2c1.2,0,2.4-0.1,3.5-0.3
	c3.1-0.7,5.8-2.2,8-4.4c0.2-0.2,0.2-0.3,0.1-0.5c-0.7-1.5-1.5-3-2.7-4.2c-2.5-2.6-5.4-4.2-9.1-4.1c-2,0-3.8,0.5-5.5,1.5
	c-2.8,1.6-4.7,3.9-6,6.8c-0.1,0.2-0.1,0.4,0.1,0.6C11.5,34.6,15.3,36.2,19.7,36.2z"/>
<path d="M19.8,18.2c-3.3,0-6-2.7-6-6c0-3.3,2.8-6.1,6-6c3.4,0,6,2.7,6,6C25.9,15.4,23.1,18.1,19.8,18.2z M19.8,16.1
	c2.4,0,4-1.8,4-4.3c0-1.8-1.8-3.8-4.1-3.7c-2.3,0.1-3.9,1.8-3.9,4.3C15.9,14.3,17.7,16.2,19.8,16.1z"/>
</svg>
