<?xml version="1.0" encoding="utf-8"?>
<!-- Generator: Adobe Illustrator 25.2.1, SVG Export Plug-In . SVG Version: 6.00 Build 0)  -->
<svg version="1.1" id="Layer_1" xmlns="http://www.w3.org/2000/svg" xmlns:xlink="http://www.w3.org/1999/xlink" x="0px" y="0px"
	 viewBox="0 0 32 32" style="enable-background:new 0 0 32 32;" xml:space="preserve">
<path d="M15,1.7c0.7-0.1,1.3,0,2,0c0.1,0,0.2,0,0.2,0c0.6,0.1,1,0.2,1.6,0.2C22.8,2.8,26,5,28.3,8.5c1.1,1.7,1.7,3.6,2.1,5.6
	c0.1,0.3,0.2,0.7,0.2,1c0,0.6,0,1.3,0,2c0,0.1,0,0.2,0,0.2c-0.1,0.7-0.2,1.4-0.3,2.1c-0.9,3.6-2.8,6.6-5.9,8.7
	c-1.8,1.3-3.9,2.1-6.1,2.4c-0.4,0.1-0.7,0.2-1.1,0.2c-0.6,0-1.3,0.1-2,0c-0.1,0-0.2,0-0.2,0c-0.6-0.1-1-0.2-1.6-0.2
	c-4.2-0.9-7.4-3.1-9.6-6.6c-1.1-1.7-1.7-3.6-2.1-5.6c-0.1-0.3-0.1-0.7-0.2-1c-0.1-0.7-0.1-1.3,0-2c0-0.1,0-0.2,0-0.2
	c0.1-0.6,0.2-1,0.2-1.6c0.8-3.9,2.8-7,6-9.2c1.8-1.3,3.9-2.1,6.2-2.4C14.3,1.8,14.6,1.7,15,1.7z M26.4,23.7
	c3.6-4.9,3.5-12.7-2.1-17.3C18.8,1.8,10.8,2.4,6.1,8c-4.4,5.2-3.5,12.1-0.6,15.7c0.2-0.3,0.3-0.6,0.6-0.9c2.1-3.6,5.1-5.7,9.3-6
	c1.7-0.2,3.4,0.2,4.9,0.9c2.6,1.2,4.5,3.2,5.9,5.7C26.2,23.4,26.3,23.6,26.4,23.7z M15.9,29c0.9,0,1.9-0.1,2.8-0.2
	c2.5-0.6,4.6-1.7,6.3-3.5c0.2-0.2,0.2-0.2,0.1-0.4c-0.6-1.2-1.2-2.4-2.1-3.3c-2-2.1-4.3-3.3-7.2-3.2c-1.6,0-3,0.4-4.4,1.2
	c-2.2,1.3-3.7,3.1-4.7,5.4c-0.1,0.2-0.1,0.3,0.1,0.5C9.4,27.8,12.4,29,15.9,29z"/>
<path d="M16,14.8c-2.6,0-4.7-2.1-4.7-4.7s2.2-4.8,4.7-4.7c2.7,0,4.7,2.1,4.7,4.7C20.8,12.6,18.6,14.7,16,14.8z M16,13.1
	c1.9,0,3.2-1.4,3.2-3.4c0-1.4-1.4-3-3.2-2.9c-1.8,0.1-3.1,1.4-3.1,3.4C12.9,11.7,14.3,13.2,16,13.1z"/>
</svg>
